<?xml version="1.0" encoding="UTF-8"?>
<svg id="Ebene_1" data-name="Ebene 1" xmlns="http://www.w3.org/2000/svg" viewBox="0 0 852.98 271.57">
  <defs>
    <style>
      .cls-1 {
        fill: #da46f0;
      }

      .cls-1, .cls-2 {
        stroke-width: 0px;
      }

      .cls-2 {
        fill: #fff;
      }
    </style>
  </defs>
  <g>
    <path class="cls-2" d="M395.78,271.57l-6.09-90.48h14.65l2.85,52.11,1.17,21.52h1.17l9.07-52.76h15.82l9.07,52.76h1.17l1.17-21.52,2.85-52.11h14.13l-6.09,90.48h-21.91l-8.04-51.2h-1.04l-8.04,51.2h-21.91Z"/>
    <path class="cls-2" d="M523.34,271.57l-6.35-23.07h-26.83l-6.22,23.07h-17.11l25.41-90.48h23.59l25.54,90.48h-18.02ZM504.15,197.81h-1.04l-9.98,36.94h21l-9.98-36.94Z"/>
    <path class="cls-2" d="M569.87,271.57l-24.76-90.48h18.67l11.28,45.76,6.61,28.52h.91l6.74-28.52,11.41-45.76h17.76l-24.76,90.48h-23.85Z"/>
    <path class="cls-2" d="M630.8,271.57v-12.7h20.35v-65.08h-20.35v-12.7h57.56v12.7h-20.35v65.08h20.35v12.7h-57.56Z"/>
    <path class="cls-2" d="M709.22,271.57v-90.48h59.11v14h-42.13v23.59h37.98v14h-37.98v38.89h-16.98Z"/>
    <path class="cls-2" d="M806.7,271.57v-33.06l-29.43-57.43h18.93l10.5,21.78,8.17,18.54h.91l8.3-18.54,10.63-21.78h18.28l-29.43,57.43v33.06h-16.85Z"/>
  </g>
  <g>
    <path class="cls-2" d="M346.64,181.05c-23.17,89.65-43.06,90.52-48.41,90.52s-25.24-.87-48.41-90.52c-23.18-89.65-43.06-90.52-48.41-90.53h-18.23C206.35.87,226.24,0,231.59,0s25.24.87,48.41,90.52c23.18,89.65,43.06,90.53,48.41,90.53h18.23Z"/>
    <path class="cls-2" d="M48.41,0c5.35,0,25.24.87,48.41,90.52,23.18,89.65,43.06,90.53,48.41,90.53h18.23c-23.17,89.65-43.06,90.52-48.41,90.52s-25.24-.87-48.41-90.52C43.46,91.4,23.58,90.53,18.23,90.52H0V0h48.41Z"/>
    <path class="cls-1" d="M462.62,90.52V0s-48.41,0-48.41,0c-5.35,0-25.24.87-48.41,90.52h96.81Z"/>
  </g>
</svg>